<mxfile host="65bd71144e">
    <diagram id="gPNYwSvPS931nzW01Ukq" name="第 1 页">
        <mxGraphModel dx="1048" dy="563" grid="1" gridSize="10" guides="1" tooltips="1" connect="1" arrows="1" fold="1" page="1" pageScale="1" pageWidth="1169" pageHeight="827" math="0" shadow="0">
            <root>
                <mxCell id="0"/>
                <mxCell id="1" parent="0"/>
                <mxCell id="9" value="Downloader::Base" style="swimlane;fontStyle=1;align=center;verticalAlign=top;childLayout=stackLayout;horizontal=1;startSize=26;horizontalStack=0;resizeParent=1;resizeParentMax=0;resizeLast=0;collapsible=1;marginBottom=0;" parent="1" vertex="1">
                    <mxGeometry x="390" y="100" width="160" height="34" as="geometry"/>
                </mxCell>
                <mxCell id="11" value="" style="line;strokeWidth=1;fillColor=none;align=left;verticalAlign=middle;spacingTop=-1;spacingLeft=3;spacingRight=3;rotatable=0;labelPosition=right;points=[];portConstraint=eastwest;" parent="9" vertex="1">
                    <mxGeometry y="26" width="160" height="8" as="geometry"/>
                </mxCell>
                <mxCell id="13" value="Downloader::Git" style="swimlane;fontStyle=1;align=center;verticalAlign=top;childLayout=stackLayout;horizontal=1;startSize=26;horizontalStack=0;resizeParent=1;resizeParentMax=0;resizeLast=0;collapsible=1;marginBottom=0;" parent="1" vertex="1">
                    <mxGeometry x="140" y="280" width="160" height="34" as="geometry"/>
                </mxCell>
                <mxCell id="15" value="" style="line;strokeWidth=1;fillColor=none;align=left;verticalAlign=middle;spacingTop=-1;spacingLeft=3;spacingRight=3;rotatable=0;labelPosition=right;points=[];portConstraint=eastwest;" parent="13" vertex="1">
                    <mxGeometry y="26" width="160" height="8" as="geometry"/>
                </mxCell>
                <mxCell id="17" value="Extends" style="endArrow=block;endSize=16;endFill=0;html=1;exitX=0.5;exitY=0;exitDx=0;exitDy=0;entryX=0.5;entryY=1;entryDx=0;entryDy=0;" parent="1" source="13" target="9" edge="1">
                    <mxGeometry width="160" relative="1" as="geometry">
                        <mxPoint x="270" y="230" as="sourcePoint"/>
                        <mxPoint x="460" y="187" as="targetPoint"/>
                    </mxGeometry>
                </mxCell>
                <mxCell id="18" value="Downloader::Bazaar" style="swimlane;fontStyle=1;align=center;verticalAlign=top;childLayout=stackLayout;horizontal=1;startSize=26;horizontalStack=0;resizeParent=1;resizeParentMax=0;resizeLast=0;collapsible=1;marginBottom=0;" parent="1" vertex="1">
                    <mxGeometry x="610" y="280" width="160" height="34" as="geometry"/>
                </mxCell>
                <mxCell id="20" value="" style="line;strokeWidth=1;fillColor=none;align=left;verticalAlign=middle;spacingTop=-1;spacingLeft=3;spacingRight=3;rotatable=0;labelPosition=right;points=[];portConstraint=eastwest;" parent="18" vertex="1">
                    <mxGeometry y="26" width="160" height="8" as="geometry"/>
                </mxCell>
                <mxCell id="23" value="Extends" style="endArrow=block;endSize=16;endFill=0;html=1;exitX=0.5;exitY=0;exitDx=0;exitDy=0;" parent="1" source="18" edge="1">
                    <mxGeometry width="160" relative="1" as="geometry">
                        <mxPoint x="230" y="290" as="sourcePoint"/>
                        <mxPoint x="470" y="130" as="targetPoint"/>
                    </mxGeometry>
                </mxCell>
                <mxCell id="24" value="Downloader::Mercurial" style="swimlane;fontStyle=1;align=center;verticalAlign=top;childLayout=stackLayout;horizontal=1;startSize=26;horizontalStack=0;resizeParent=1;resizeParentMax=0;resizeLast=0;collapsible=1;marginBottom=0;" parent="1" vertex="1">
                    <mxGeometry x="830" y="280" width="160" height="34" as="geometry"/>
                </mxCell>
                <mxCell id="26" value="" style="line;strokeWidth=1;fillColor=none;align=left;verticalAlign=middle;spacingTop=-1;spacingLeft=3;spacingRight=3;rotatable=0;labelPosition=right;points=[];portConstraint=eastwest;" parent="24" vertex="1">
                    <mxGeometry y="26" width="160" height="8" as="geometry"/>
                </mxCell>
                <mxCell id="28" value="Downloader::Subversion" style="swimlane;fontStyle=1;align=center;verticalAlign=top;childLayout=stackLayout;horizontal=1;startSize=26;horizontalStack=0;resizeParent=1;resizeParentMax=0;resizeLast=0;collapsible=1;marginBottom=0;" parent="1" vertex="1">
                    <mxGeometry x="1050" y="280" width="160" height="34" as="geometry"/>
                </mxCell>
                <mxCell id="30" value="" style="line;strokeWidth=1;fillColor=none;align=left;verticalAlign=middle;spacingTop=-1;spacingLeft=3;spacingRight=3;rotatable=0;labelPosition=right;points=[];portConstraint=eastwest;" parent="28" vertex="1">
                    <mxGeometry y="26" width="160" height="8" as="geometry"/>
                </mxCell>
                <mxCell id="32" value="Downloader::RemoteFile" style="swimlane;fontStyle=1;align=center;verticalAlign=top;childLayout=stackLayout;horizontal=1;startSize=26;horizontalStack=0;resizeParent=1;resizeParentMax=0;resizeLast=0;collapsible=1;marginBottom=0;" parent="1" vertex="1">
                    <mxGeometry x="370" y="280" width="160" height="34" as="geometry"/>
                </mxCell>
                <mxCell id="34" value="" style="line;strokeWidth=1;fillColor=none;align=left;verticalAlign=middle;spacingTop=-1;spacingLeft=3;spacingRight=3;rotatable=0;labelPosition=right;points=[];portConstraint=eastwest;" parent="32" vertex="1">
                    <mxGeometry y="26" width="160" height="8" as="geometry"/>
                </mxCell>
                <mxCell id="36" value="Extends" style="endArrow=block;endSize=16;endFill=0;html=1;exitX=0.5;exitY=0;exitDx=0;exitDy=0;" parent="1" source="32" edge="1">
                    <mxGeometry width="160" relative="1" as="geometry">
                        <mxPoint x="700" y="290" as="sourcePoint"/>
                        <mxPoint x="470" y="130" as="targetPoint"/>
                    </mxGeometry>
                </mxCell>
                <mxCell id="37" value="Extends" style="endArrow=block;endSize=16;endFill=0;html=1;exitX=0.5;exitY=0;exitDx=0;exitDy=0;" parent="1" source="24" edge="1">
                    <mxGeometry width="160" relative="1" as="geometry">
                        <mxPoint x="700" y="290" as="sourcePoint"/>
                        <mxPoint x="470" y="140" as="targetPoint"/>
                    </mxGeometry>
                </mxCell>
                <mxCell id="38" value="Extends" style="endArrow=block;endSize=16;endFill=0;html=1;exitX=0.5;exitY=0;exitDx=0;exitDy=0;entryX=0.5;entryY=1;entryDx=0;entryDy=0;" parent="1" source="28" target="9" edge="1">
                    <mxGeometry width="160" relative="1" as="geometry">
                        <mxPoint x="710" y="300" as="sourcePoint"/>
                        <mxPoint x="460" y="190" as="targetPoint"/>
                    </mxGeometry>
                </mxCell>
                <mxCell id="39" value="Downloader::Http" style="swimlane;fontStyle=1;align=center;verticalAlign=top;childLayout=stackLayout;horizontal=1;startSize=26;horizontalStack=0;resizeParent=1;resizeParentMax=0;resizeLast=0;collapsible=1;marginBottom=0;" parent="1" vertex="1">
                    <mxGeometry x="270" y="414" width="160" height="34" as="geometry"/>
                </mxCell>
                <mxCell id="40" value="" style="line;strokeWidth=1;fillColor=none;align=left;verticalAlign=middle;spacingTop=-1;spacingLeft=3;spacingRight=3;rotatable=0;labelPosition=right;points=[];portConstraint=eastwest;" parent="39" vertex="1">
                    <mxGeometry y="26" width="160" height="8" as="geometry"/>
                </mxCell>
                <mxCell id="41" value="Downloader::Scp" style="swimlane;fontStyle=1;align=center;verticalAlign=top;childLayout=stackLayout;horizontal=1;startSize=26;horizontalStack=0;resizeParent=1;resizeParentMax=0;resizeLast=0;collapsible=1;marginBottom=0;" parent="1" vertex="1">
                    <mxGeometry x="505" y="414" width="160" height="34" as="geometry"/>
                </mxCell>
                <mxCell id="42" value="" style="line;strokeWidth=1;fillColor=none;align=left;verticalAlign=middle;spacingTop=-1;spacingLeft=3;spacingRight=3;rotatable=0;labelPosition=right;points=[];portConstraint=eastwest;" parent="41" vertex="1">
                    <mxGeometry y="26" width="160" height="8" as="geometry"/>
                </mxCell>
                <mxCell id="43" value="Extends" style="endArrow=block;endSize=16;endFill=0;html=1;exitX=0.5;exitY=0;exitDx=0;exitDy=0;" parent="1" source="39" edge="1">
                    <mxGeometry width="160" relative="1" as="geometry">
                        <mxPoint x="210" y="407" as="sourcePoint"/>
                        <mxPoint x="450" y="314" as="targetPoint"/>
                    </mxGeometry>
                </mxCell>
                <mxCell id="44" value="Extends" style="endArrow=block;endSize=16;endFill=0;html=1;exitX=0.5;exitY=0;exitDx=0;exitDy=0;entryX=0.5;entryY=1;entryDx=0;entryDy=0;" parent="1" source="41" target="32" edge="1">
                    <mxGeometry width="160" relative="1" as="geometry">
                        <mxPoint x="360" y="424" as="sourcePoint"/>
                        <mxPoint x="450" y="320" as="targetPoint"/>
                    </mxGeometry>
                </mxCell>
                <mxCell id="45" value="Downloader::Git" style="swimlane;fontStyle=1;align=center;verticalAlign=top;childLayout=stackLayout;horizontal=1;startSize=34;horizontalStack=0;resizeParent=1;resizeParentMax=0;resizeLast=0;collapsible=1;marginBottom=0;" parent="1" vertex="1">
                    <mxGeometry x="220" y="792" width="160" height="42" as="geometry"/>
                </mxCell>
                <mxCell id="46" value="" style="line;strokeWidth=1;fillColor=none;align=left;verticalAlign=middle;spacingTop=-1;spacingLeft=3;spacingRight=3;rotatable=0;labelPosition=right;points=[];portConstraint=eastwest;" parent="45" vertex="1">
                    <mxGeometry y="34" width="160" height="8" as="geometry"/>
                </mxCell>
                <mxCell id="48" value="协议类的组成" style="text;html=1;align=center;verticalAlign=middle;resizable=0;points=[];autosize=1;strokeColor=none;fillColor=none;fontSize=24;fontStyle=1" parent="1" vertex="1">
                    <mxGeometry x="390" y="35" width="160" height="30" as="geometry"/>
                </mxCell>
                <mxCell id="49" value="Client" style="swimlane;fontStyle=1;align=center;verticalAlign=top;childLayout=stackLayout;horizontal=1;startSize=34;horizontalStack=0;resizeParent=1;resizeParentMax=0;resizeLast=0;collapsible=1;marginBottom=0;" parent="1" vertex="1">
                    <mxGeometry x="380" y="640" width="160" height="42" as="geometry"/>
                </mxCell>
                <mxCell id="50" value="" style="line;strokeWidth=1;fillColor=none;align=left;verticalAlign=middle;spacingTop=-1;spacingLeft=3;spacingRight=3;rotatable=0;labelPosition=right;points=[];portConstraint=eastwest;" parent="49" vertex="1">
                    <mxGeometry y="34" width="160" height="8" as="geometry"/>
                </mxCell>
                <mxCell id="51" value="Use" style="endArrow=open;endSize=12;dashed=1;html=1;fontSize=24;entryX=0.5;entryY=0;entryDx=0;entryDy=0;exitX=0.5;exitY=1;exitDx=0;exitDy=0;" parent="1" source="49" target="45" edge="1">
                    <mxGeometry width="160" relative="1" as="geometry">
                        <mxPoint x="380" y="650" as="sourcePoint"/>
                        <mxPoint x="540" y="650" as="targetPoint"/>
                    </mxGeometry>
                </mxCell>
                <mxCell id="52" value="Downloader::Http" style="swimlane;fontStyle=1;align=center;verticalAlign=top;childLayout=stackLayout;horizontal=1;startSize=26;horizontalStack=0;resizeParent=1;resizeParentMax=0;resizeLast=0;collapsible=1;marginBottom=0;" parent="1" vertex="1">
                    <mxGeometry x="505" y="800" width="160" height="34" as="geometry"/>
                </mxCell>
                <mxCell id="53" value="" style="line;strokeWidth=1;fillColor=none;align=left;verticalAlign=middle;spacingTop=-1;spacingLeft=3;spacingRight=3;rotatable=0;labelPosition=right;points=[];portConstraint=eastwest;" parent="52" vertex="1">
                    <mxGeometry y="26" width="160" height="8" as="geometry"/>
                </mxCell>
                <mxCell id="54" value="Use" style="endArrow=open;endSize=12;dashed=1;html=1;fontSize=24;entryX=0.5;entryY=0;entryDx=0;entryDy=0;exitX=0.5;exitY=0.875;exitDx=0;exitDy=0;exitPerimeter=0;" parent="1" source="50" target="52" edge="1">
                    <mxGeometry width="160" relative="1" as="geometry">
                        <mxPoint x="470" y="692" as="sourcePoint"/>
                        <mxPoint x="310" y="795" as="targetPoint"/>
                    </mxGeometry>
                </mxCell>
                <mxCell id="55" value="Client" style="swimlane;fontStyle=1;align=center;verticalAlign=top;childLayout=stackLayout;horizontal=1;startSize=34;horizontalStack=0;resizeParent=1;resizeParentMax=0;resizeLast=0;collapsible=1;marginBottom=0;" parent="1" vertex="1">
                    <mxGeometry x="370" y="890" width="160" height="42" as="geometry"/>
                </mxCell>
                <mxCell id="56" value="" style="line;strokeWidth=1;fillColor=none;align=left;verticalAlign=middle;spacingTop=-1;spacingLeft=3;spacingRight=3;rotatable=0;labelPosition=right;points=[];portConstraint=eastwest;" parent="55" vertex="1">
                    <mxGeometry y="34" width="160" height="8" as="geometry"/>
                </mxCell>
                <mxCell id="57" value="Downloader::Base" style="swimlane;fontStyle=1;align=center;verticalAlign=top;childLayout=stackLayout;horizontal=1;startSize=26;horizontalStack=0;resizeParent=1;resizeParentMax=0;resizeLast=0;collapsible=1;marginBottom=0;" parent="1" vertex="1">
                    <mxGeometry x="370" y="1100" width="160" height="34" as="geometry"/>
                </mxCell>
                <mxCell id="58" value="" style="line;strokeWidth=1;fillColor=none;align=left;verticalAlign=middle;spacingTop=-1;spacingLeft=3;spacingRight=3;rotatable=0;labelPosition=right;points=[];portConstraint=eastwest;" parent="57" vertex="1">
                    <mxGeometry y="26" width="160" height="8" as="geometry"/>
                </mxCell>
                <mxCell id="62" value="Downloader::Git" style="swimlane;fontStyle=1;align=center;verticalAlign=top;childLayout=stackLayout;horizontal=1;startSize=34;horizontalStack=0;resizeParent=1;resizeParentMax=0;resizeLast=0;collapsible=1;marginBottom=0;" parent="1" vertex="1">
                    <mxGeometry x="180" y="1190" width="160" height="42" as="geometry"/>
                </mxCell>
                <mxCell id="63" value="" style="line;strokeWidth=1;fillColor=none;align=left;verticalAlign=middle;spacingTop=-1;spacingLeft=3;spacingRight=3;rotatable=0;labelPosition=right;points=[];portConstraint=eastwest;" parent="62" vertex="1">
                    <mxGeometry y="34" width="160" height="8" as="geometry"/>
                </mxCell>
                <mxCell id="64" value="Downloader::Http" style="swimlane;fontStyle=1;align=center;verticalAlign=top;childLayout=stackLayout;horizontal=1;startSize=26;horizontalStack=0;resizeParent=1;resizeParentMax=0;resizeLast=0;collapsible=1;marginBottom=0;" parent="1" vertex="1">
                    <mxGeometry x="540" y="1198" width="160" height="34" as="geometry"/>
                </mxCell>
                <mxCell id="65" value="" style="line;strokeWidth=1;fillColor=none;align=left;verticalAlign=middle;spacingTop=-1;spacingLeft=3;spacingRight=3;rotatable=0;labelPosition=right;points=[];portConstraint=eastwest;" parent="64" vertex="1">
                    <mxGeometry y="26" width="160" height="8" as="geometry"/>
                </mxCell>
                <mxCell id="66" value="Use" style="endArrow=open;endSize=12;dashed=1;html=1;fontSize=24;entryX=0.5;entryY=0;entryDx=0;entryDy=0;exitX=0.5;exitY=1;exitDx=0;exitDy=0;" parent="1" source="55" target="69" edge="1">
                    <mxGeometry width="160" relative="1" as="geometry">
                        <mxPoint x="460" y="954" as="sourcePoint"/>
                        <mxPoint x="300" y="1064" as="targetPoint"/>
                    </mxGeometry>
                </mxCell>
                <mxCell id="67" value="Extends" style="endArrow=block;endSize=16;endFill=0;html=1;exitX=0.438;exitY=0;exitDx=0;exitDy=0;entryX=0.5;entryY=1;entryDx=0;entryDy=0;exitPerimeter=0;" parent="1" source="62" target="57" edge="1">
                    <mxGeometry width="160" relative="1" as="geometry">
                        <mxPoint x="240" y="1190" as="sourcePoint"/>
                        <mxPoint x="340" y="1090" as="targetPoint"/>
                    </mxGeometry>
                </mxCell>
                <mxCell id="68" value="Extends" style="endArrow=block;endSize=16;endFill=0;html=1;exitX=0.5;exitY=0;exitDx=0;exitDy=0;" parent="1" source="64" edge="1">
                    <mxGeometry width="160" relative="1" as="geometry">
                        <mxPoint x="260.0799999999999" y="1200" as="sourcePoint"/>
                        <mxPoint x="450" y="1130" as="targetPoint"/>
                    </mxGeometry>
                </mxCell>
                <mxCell id="69" value="Factory" style="swimlane;fontStyle=1;align=center;verticalAlign=top;childLayout=stackLayout;horizontal=1;startSize=26;horizontalStack=0;resizeParent=1;resizeParentMax=0;resizeLast=0;collapsible=1;marginBottom=0;" parent="1" vertex="1">
                    <mxGeometry x="560" y="1020" width="160" height="34" as="geometry"/>
                </mxCell>
                <mxCell id="70" value="" style="line;strokeWidth=1;fillColor=none;align=left;verticalAlign=middle;spacingTop=-1;spacingLeft=3;spacingRight=3;rotatable=0;labelPosition=right;points=[];portConstraint=eastwest;" parent="69" vertex="1">
                    <mxGeometry y="26" width="160" height="8" as="geometry"/>
                </mxCell>
                <mxCell id="71" value="Use" style="endArrow=open;endSize=12;dashed=1;html=1;fontSize=24;entryX=0.5;entryY=0;entryDx=0;entryDy=0;exitX=0.475;exitY=0.75;exitDx=0;exitDy=0;exitPerimeter=0;" parent="1" source="56" target="57" edge="1">
                    <mxGeometry width="160" relative="1" as="geometry">
                        <mxPoint x="460" y="942" as="sourcePoint"/>
                        <mxPoint x="650" y="1030" as="targetPoint"/>
                    </mxGeometry>
                </mxCell>
                <mxCell id="72" value="Use" style="endArrow=open;endSize=12;dashed=1;html=1;fontSize=24;entryX=1;entryY=0.25;entryDx=0;entryDy=0;exitX=0.5;exitY=1;exitDx=0;exitDy=0;" parent="1" source="69" target="57" edge="1">
                    <mxGeometry width="160" relative="1" as="geometry">
                        <mxPoint x="456" y="940" as="sourcePoint"/>
                        <mxPoint x="460" y="1110" as="targetPoint"/>
                    </mxGeometry>
                </mxCell>
                <mxCell id="73" value="Use" style="endArrow=open;endSize=12;dashed=1;html=1;fontSize=24;entryX=0.5;entryY=0;entryDx=0;entryDy=0;exitX=0.506;exitY=0.75;exitDx=0;exitDy=0;exitPerimeter=0;" parent="1" source="70" target="64" edge="1">
                    <mxGeometry width="160" relative="1" as="geometry">
                        <mxPoint x="650" y="1064" as="sourcePoint"/>
                        <mxPoint x="540" y="1118.5" as="targetPoint"/>
                    </mxGeometry>
                </mxCell>
                <mxCell id="74" value="Use" style="endArrow=open;endSize=12;dashed=1;html=1;fontSize=24;entryX=1;entryY=0.5;entryDx=0;entryDy=0;exitX=1;exitY=1;exitDx=0;exitDy=0;" parent="1" source="69" target="62" edge="1">
                    <mxGeometry width="160" relative="1" as="geometry">
                        <mxPoint x="650.96" y="1062" as="sourcePoint"/>
                        <mxPoint x="630" y="1208" as="targetPoint"/>
                    </mxGeometry>
                </mxCell>
                <mxCell id="90" value="Client" style="swimlane;fontStyle=1;align=center;verticalAlign=top;childLayout=stackLayout;horizontal=1;startSize=34;horizontalStack=0;resizeParent=1;resizeParentMax=0;resizeLast=0;collapsible=1;marginBottom=0;" vertex="1" parent="1">
                    <mxGeometry x="400" y="1330" width="160" height="42" as="geometry"/>
                </mxCell>
                <mxCell id="91" value="" style="line;strokeWidth=1;fillColor=none;align=left;verticalAlign=middle;spacingTop=-1;spacingLeft=3;spacingRight=3;rotatable=0;labelPosition=right;points=[];portConstraint=eastwest;" vertex="1" parent="90">
                    <mxGeometry y="34" width="160" height="8" as="geometry"/>
                </mxCell>
                <mxCell id="92" value="Downloader::Base" style="swimlane;fontStyle=1;align=center;verticalAlign=top;childLayout=stackLayout;horizontal=1;startSize=26;horizontalStack=0;resizeParent=1;resizeParentMax=0;resizeLast=0;collapsible=1;marginBottom=0;" vertex="1" parent="1">
                    <mxGeometry x="310" y="1550" width="160" height="34" as="geometry"/>
                </mxCell>
                <mxCell id="93" value="" style="line;strokeWidth=1;fillColor=none;align=left;verticalAlign=middle;spacingTop=-1;spacingLeft=3;spacingRight=3;rotatable=0;labelPosition=right;points=[];portConstraint=eastwest;" vertex="1" parent="92">
                    <mxGeometry y="26" width="160" height="8" as="geometry"/>
                </mxCell>
                <mxCell id="94" value="Downloader::Git" style="swimlane;fontStyle=1;align=center;verticalAlign=top;childLayout=stackLayout;horizontal=1;startSize=34;horizontalStack=0;resizeParent=1;resizeParentMax=0;resizeLast=0;collapsible=1;marginBottom=0;" vertex="1" parent="1">
                    <mxGeometry x="210" y="1760" width="160" height="42" as="geometry"/>
                </mxCell>
                <mxCell id="95" value="" style="line;strokeWidth=1;fillColor=none;align=left;verticalAlign=middle;spacingTop=-1;spacingLeft=3;spacingRight=3;rotatable=0;labelPosition=right;points=[];portConstraint=eastwest;" vertex="1" parent="94">
                    <mxGeometry y="34" width="160" height="8" as="geometry"/>
                </mxCell>
                <mxCell id="96" value="Downloader::Http" style="swimlane;fontStyle=1;align=center;verticalAlign=top;childLayout=stackLayout;horizontal=1;startSize=26;horizontalStack=0;resizeParent=1;resizeParentMax=0;resizeLast=0;collapsible=1;marginBottom=0;" vertex="1" parent="1">
                    <mxGeometry x="570" y="1768" width="160" height="34" as="geometry"/>
                </mxCell>
                <mxCell id="97" value="" style="line;strokeWidth=1;fillColor=none;align=left;verticalAlign=middle;spacingTop=-1;spacingLeft=3;spacingRight=3;rotatable=0;labelPosition=right;points=[];portConstraint=eastwest;" vertex="1" parent="96">
                    <mxGeometry y="26" width="160" height="8" as="geometry"/>
                </mxCell>
                <mxCell id="98" value="Use" style="endArrow=open;endSize=12;dashed=1;html=1;fontSize=24;entryX=0.5;entryY=0;entryDx=0;entryDy=0;exitX=0.5;exitY=1;exitDx=0;exitDy=0;" edge="1" parent="1" source="90" target="101">
                    <mxGeometry width="160" relative="1" as="geometry">
                        <mxPoint x="490" y="1394" as="sourcePoint"/>
                        <mxPoint x="330" y="1504" as="targetPoint"/>
                    </mxGeometry>
                </mxCell>
                <mxCell id="99" value="Extends" style="endArrow=block;endSize=16;endFill=0;html=1;exitX=0.438;exitY=0;exitDx=0;exitDy=0;entryX=0.5;entryY=1;entryDx=0;entryDy=0;exitPerimeter=0;" edge="1" parent="1" source="94" target="92">
                    <mxGeometry width="160" relative="1" as="geometry">
                        <mxPoint x="270" y="1760" as="sourcePoint"/>
                        <mxPoint x="370" y="1660" as="targetPoint"/>
                    </mxGeometry>
                </mxCell>
                <mxCell id="100" value="Extends" style="endArrow=block;endSize=16;endFill=0;html=1;exitX=0.5;exitY=0;exitDx=0;exitDy=0;entryX=0.5;entryY=1;entryDx=0;entryDy=0;" edge="1" parent="1" source="96" target="92">
                    <mxGeometry width="160" relative="1" as="geometry">
                        <mxPoint x="290.0799999999999" y="1770" as="sourcePoint"/>
                        <mxPoint x="480" y="1700" as="targetPoint"/>
                    </mxGeometry>
                </mxCell>
                <mxCell id="101" value="Factory" style="swimlane;fontStyle=1;align=center;verticalAlign=top;childLayout=stackLayout;horizontal=1;startSize=26;horizontalStack=0;resizeParent=1;resizeParentMax=0;resizeLast=0;collapsible=1;marginBottom=0;" vertex="1" parent="1">
                    <mxGeometry x="570" y="1550" width="160" height="34" as="geometry"/>
                </mxCell>
                <mxCell id="102" value="" style="line;strokeWidth=1;fillColor=none;align=left;verticalAlign=middle;spacingTop=-1;spacingLeft=3;spacingRight=3;rotatable=0;labelPosition=right;points=[];portConstraint=eastwest;" vertex="1" parent="101">
                    <mxGeometry y="26" width="160" height="8" as="geometry"/>
                </mxCell>
                <mxCell id="103" value="Use" style="endArrow=open;endSize=12;dashed=1;html=1;fontSize=24;entryX=0.5;entryY=0;entryDx=0;entryDy=0;exitX=0.475;exitY=0.75;exitDx=0;exitDy=0;exitPerimeter=0;" edge="1" parent="1" source="91" target="92">
                    <mxGeometry width="160" relative="1" as="geometry">
                        <mxPoint x="490" y="1382" as="sourcePoint"/>
                        <mxPoint x="680" y="1470" as="targetPoint"/>
                    </mxGeometry>
                </mxCell>
                <mxCell id="107" value="Use" style="endArrow=open;endSize=12;dashed=1;html=1;fontSize=24;exitX=0;exitY=0.5;exitDx=0;exitDy=0;" edge="1" parent="1" source="101">
                    <mxGeometry width="160" relative="1" as="geometry">
                        <mxPoint x="486" y="1380" as="sourcePoint"/>
                        <mxPoint x="470" y="1567" as="targetPoint"/>
                    </mxGeometry>
                </mxCell>
                <mxCell id="108" value="Use" style="endArrow=open;endSize=12;dashed=1;html=1;fontSize=24;exitX=0.75;exitY=0;exitDx=0;exitDy=0;entryX=0.5;entryY=1;entryDx=0;entryDy=0;" edge="1" parent="1" source="94" target="101">
                    <mxGeometry width="160" relative="1" as="geometry">
                        <mxPoint x="580" y="1577" as="sourcePoint"/>
                        <mxPoint x="480" y="1577" as="targetPoint"/>
                    </mxGeometry>
                </mxCell>
                <mxCell id="109" value="Use" style="endArrow=open;endSize=12;dashed=1;html=1;fontSize=24;exitX=0.75;exitY=0;exitDx=0;exitDy=0;" edge="1" parent="1" source="96">
                    <mxGeometry width="160" relative="1" as="geometry">
                        <mxPoint x="339.9999999999998" y="1770" as="sourcePoint"/>
                        <mxPoint x="650" y="1580" as="targetPoint"/>
                    </mxGeometry>
                </mxCell>
            </root>
        </mxGraphModel>
    </diagram>
</mxfile>